<?xml version="1.0" encoding="UTF-8" standalone="no"?>
<svg width="20" height="42" xmlns="http://www.w3.org/2000/svg"
     xmlns:xlink="http://www.w3.org/1999/xlink">
    <svg width="12" height="21" viewBox="0 0 12 21" id="facebook" x="4">
        <title>facebook</title>
        <path d="M11.017 3.466l-1.977 0.001c-1.55 0-1.85 0.737-1.85 1.817v2.383h3.696l-0.001 3.733h-3.695v9.579h-3.856v-9.579h-3.223v-3.733h3.223v-2.753c0-3.195 1.952-4.935 4.802-4.935l2.881 0.005-0 3.481z"
              fill="#fff" fill-rule="evenodd" />
    </svg>
    <svg width="20" height="21" viewBox="0 0 26 21" id="twitter" y="21">
        <title>twitter</title>
        <path d="M26.051 2.485c-0.952 0.422-1.973 0.708-3.045 0.835 1.095-0.656 1.934-1.696 2.331-2.932-1.027 0.607-2.162 1.048-3.37 1.288-0.968-1.032-2.344-1.675-3.871-1.675-2.929 0-5.304 2.375-5.304 5.302 0 0.415 0.047 0.821 0.137 1.208-4.407-0.221-8.315-2.333-10.93-5.541-0.457 0.782-0.717 1.693-0.717 2.666 0 1.84 0.937 3.464 2.359 4.414-0.869-0.029-1.687-0.268-2.402-0.666v0.066c0 2.569 1.829 4.712 4.254 5.2-0.444 0.12-0.913 0.186-1.397 0.186-0.342 0-0.674-0.034-0.998-0.099 0.675 2.108 2.633 3.641 4.953 3.683-1.814 1.422-4.102 2.267-6.586 2.267-0.428 0-0.85-0.026-1.265-0.073 2.347 1.507 5.134 2.386 8.129 2.386 9.756 0 15.089-8.081 15.089-15.089l-0.018-0.687c1.042-0.743 1.943-1.677 2.653-2.74v0z"
              fill="#fff" fill-rule="evenodd" />
    </svg>
</svg>
